<mxfile host="app.diagrams.net" modified="2020-12-15T03:23:58.669Z" agent="5.0 (Windows NT 10.0; Win64; x64) AppleWebKit/537.36 (KHTML, like Gecko) Chrome/74.0.3729.131 Safari/537.36" etag="_FF_cw0X4zKT9QhOXOBK" version="14.0.1" type="github">
  <diagram id="MuDx3OzmTid5LW_76UmI" name="第 1 页">
    <mxGraphModel dx="868" dy="460" grid="1" gridSize="10" guides="1" tooltips="1" connect="1" arrows="1" fold="1" page="1" pageScale="1" pageWidth="827" pageHeight="1169" math="0" shadow="0">
      <root>
        <mxCell id="0" />
        <mxCell id="1" parent="0" />
        <mxCell id="tnWpsy-tGs6lqLqU7XCX-1" value="" style="shape=internalStorage;whiteSpace=wrap;html=1;backgroundOutline=1;" vertex="1" parent="1">
          <mxGeometry x="280" y="130" width="80" height="80" as="geometry" />
        </mxCell>
        <mxCell id="tnWpsy-tGs6lqLqU7XCX-2" value="" style="whiteSpace=wrap;html=1;aspect=fixed;" vertex="1" parent="1">
          <mxGeometry x="334" y="380" width="80" height="80" as="geometry" />
        </mxCell>
        <mxCell id="tnWpsy-tGs6lqLqU7XCX-3" value="单独" style="whiteSpace=wrap;html=1;shape=mxgraph.basic.document" vertex="1" parent="1">
          <mxGeometry x="530" y="250" width="100" height="100" as="geometry" />
        </mxCell>
        <mxCell id="tnWpsy-tGs6lqLqU7XCX-4" value="Receive" style="html=1;whiteSpace=wrap;rounded=1;dropTarget=0;" vertex="1" parent="1">
          <mxGeometry x="130" y="240" width="120" height="80" as="geometry" />
        </mxCell>
        <mxCell id="tnWpsy-tGs6lqLqU7XCX-5" value="" style="html=1;shape=message;outlineConnect=0;" vertex="1" parent="tnWpsy-tGs6lqLqU7XCX-4">
          <mxGeometry width="20" height="14" relative="1" as="geometry">
            <mxPoint x="7" y="7" as="offset" />
          </mxGeometry>
        </mxCell>
      </root>
    </mxGraphModel>
  </diagram>
</mxfile>
